<svg id="Layer_1" data-name="Layer 1" xmlns="http://www.w3.org/2000/svg" viewBox="0 0 1000 464.52"><defs><style>.cls-1{fill:#101113;}</style></defs><path class="cls-1" d="M1000,233.94C911.13,148.54,812.08,88.55,812.08,88.55c14.9-.61,113.77,24.5,113.77,24.5C709.83-3.73,498.35,0,498.35,0,247.47.5,52.1,148.75,49.1,151.05c61-33.65,111.08-35.91,111.08-35.91C52.76,168.6.64,242.55,0,243.64,155,130.38,244.24,94.33,315.85,78.09l.23-.06a1.47,1.47,0,0,1,.26,0c3.72-1,28.86-7.44,66.69-12.4a206.25,206.25,0,0,0-52.41,282.7,2.6,2.6,0,0,1,.2.3,200.31,200.31,0,0,0,80.75,75.71l-6.89-.19C327.09,409,216,378.64,107,323c3.54,2.22,234.06,141.54,389.81,141.54,228,0,406.36-206.93,406.36-206.93C1002.24,245.21,1000,233.94,1000,233.94Zm-679.34-.15c0-101.25,80.28-183.34,179.34-183.34s179.32,82.09,179.32,183.34S599,417.13,500,417.13,320.66,335,320.66,233.79Zm275.1,185.57a199.42,199.42,0,0,0,57.47-50.06,206.23,206.23,0,0,0-8.45-280.12c14.55,5.2,29.53,11,44.59,17.58v0c64,27.76,129.48,68.37,168.41,127.14C857.78,233.92,752.14,369.82,595.76,419.36Z"/><path class="cls-1" d="M613.25,348.86a158.42,158.42,0,0,1-13.73,12.51A178.63,178.63,0,0,1,507,335.65c80.46-53.49,108.11-160.92,64.62-249.08a159.24,159.24,0,0,1,41.63,30.74C675.7,181.14,675.7,285,613.25,348.86Z"/><path class="cls-1" d="M588.69,369.45a157.85,157.85,0,0,1-201.93-20.59,163.55,163.55,0,0,1-44.91-90.47,184.85,184.85,0,0,1,68.74-69.49,191.78,191.78,0,0,0,57.87,127.4A187.61,187.61,0,0,0,588.69,369.45Z"/><path class="cls-1" d="M583.78,177.2a183.29,183.29,0,0,0-84.24-20.59,187.25,187.25,0,0,0-86.16,21.25l-1.75.86-1.81.94,0,.09a192.8,192.8,0,0,0-69.51,65.15c-3.37-47.61,13.32-93.77,46.42-127.59A158,158,0,0,1,559.35,81,189.48,189.48,0,0,1,583.78,177.2Z"/><path class="cls-1" d="M555.71,233.08c0-31.45-24.94-57-55.71-57s-55.71,25.5-55.71,57,24.94,57,55.71,57S555.71,264.54,555.71,233.08Z"/></svg>