<svg id="Layer_1" data-name="Layer 1" xmlns="http://www.w3.org/2000/svg" viewBox="0 0 1000 216.34"><defs><style>.cls-1{fill:#101113;}</style></defs><path class="cls-1" d="M465.72,109C424.34,69.18,378.2,41.24,378.2,41.24c6.94-.28,53,11.41,53,11.41C330.58-1.74,232.09,0,232.09,0,115.25.23,24.26,69.28,22.87,70.35,51.27,54.68,74.6,53.63,74.6,53.63,24.57,78.52.3,113,0,113.47c72.17-52.75,113.75-69.54,147.1-77.1l.11,0,.12,0a259.77,259.77,0,0,1,31.06-5.78A96,96,0,0,0,154,162.2l.09.14a93.18,93.18,0,0,0,37.61,35.26l-3.21-.09c-36.14-7-87.88-21.17-138.62-47.09,1.65,1,109,65.92,181.55,65.92,106.17,0,189.25-96.37,189.25-96.37C466.77,114.2,465.72,109,465.72,109Zm-316.38-.07c0-47.15,37.39-85.38,83.52-85.38s83.52,38.23,83.52,85.38-37.4,85.39-83.52,85.39S149.34,156,149.34,108.88ZM277.46,195.3A92.81,92.81,0,0,0,304.23,172a96,96,0,0,0-3.94-130.46c6.77,2.42,13.75,5.14,20.76,8.19h0c29.8,12.93,60.31,31.84,78.44,59.21C399.49,108.94,350.29,172.23,277.46,195.3Z"/><path class="cls-1" d="M285.6,162.47a72.32,72.32,0,0,1-6.39,5.83,83.17,83.17,0,0,1-43.09-12c37.47-24.91,50.35-74.94,30.1-116A74.06,74.06,0,0,1,285.6,54.63C314.69,84.36,314.69,132.74,285.6,162.47Z"/><path class="cls-1" d="M274.17,172.06a73.5,73.5,0,0,1-94.05-9.59,76.1,76.1,0,0,1-20.91-42.13,86,86,0,0,1,32-32.36,89.3,89.3,0,0,0,26.95,59.33A87.42,87.42,0,0,0,274.17,172.06Z"/><path class="cls-1" d="M271.88,82.53a85.35,85.35,0,0,0-39.23-9.59,87.36,87.36,0,0,0-40.13,9.89l-.81.4-.85.44,0,0a89.86,89.86,0,0,0-32.38,30.35,76.87,76.87,0,0,1,21.62-59.43A73.61,73.61,0,0,1,260.5,37.7,88.17,88.17,0,0,1,271.88,82.53Z"/><path class="cls-1" d="M258.81,108.55C258.81,93.9,247.19,82,232.86,82s-25.94,11.87-25.94,26.52,11.61,26.53,25.94,26.53S258.81,123.2,258.81,108.55Z"/><path class="cls-1" d="M544.69,45.64a24.62,24.62,0,0,1,10.11,9.8,28.83,28.83,0,0,1,3.55,14.41,28.44,28.44,0,0,1-3.59,14.33,25.43,25.43,0,0,1-10.15,9.89,31.48,31.48,0,0,1-15.24,3.58h-22V42.14h22A32.07,32.07,0,0,1,544.69,45.64Zm-5.87,34.69q3.85-3.7,3.86-10.48t-3.86-10.59q-3.86-3.73-10.63-3.74h-5.36V84h5.36Q535,84,538.82,80.33Z"/><path class="cls-1" d="M581.1,54.5v9h17.72V75.29H581.1v10h20.08V97.65H565.67V42.14h35.51V54.5Z"/><path class="cls-1" d="M614.25,93.59Q608,89,607.56,80.4H624a6.12,6.12,0,0,0,1.73,4.26,6.29,6.29,0,0,0,7.36.27,3.51,3.51,0,0,0,1.38-3,4.16,4.16,0,0,0-2.29-3.78,40.24,40.24,0,0,0-7.4-3A66.82,66.82,0,0,1,616,71.7a16.79,16.79,0,0,1-5.82-5,13.7,13.7,0,0,1-2.48-8.54A15.58,15.58,0,0,1,610.39,49a16.55,16.55,0,0,1,7.4-5.79,27.67,27.67,0,0,1,10.71-2q9.69,0,15.48,4.53t6.18,12.71H633.39a5,5,0,0,0-1.54-3.78,5.56,5.56,0,0,0-3.74-1.26,4,4,0,0,0-2.84,1,3.78,3.78,0,0,0-1.1,2.91,3.61,3.61,0,0,0,1.22,2.72,11.41,11.41,0,0,0,3,2q1.82.82,5.36,2.08a64.5,64.5,0,0,1,8.7,3.59,17.83,17.83,0,0,1,5.91,5,12.75,12.75,0,0,1,2.48,8.07,16.41,16.41,0,0,1-2.48,8.9,17.19,17.19,0,0,1-7.17,6.22,25,25,0,0,1-11.06,2.28Q620.47,98.2,614.25,93.59Z"/><path class="cls-1" d="M673.86,42.14V97.65H658.42V42.14Z"/><path class="cls-1" d="M711.18,97.65l-11-20.47H698.5V97.65H683.07V42.14H707.4a25.16,25.16,0,0,1,11.34,2.32,16.26,16.26,0,0,1,7,6.38,17.75,17.75,0,0,1,2.36,9.09,16.55,16.55,0,0,1-3.11,10,16.78,16.78,0,0,1-9.09,6.1l12.52,21.66Zm-12.68-31h7.64a6.63,6.63,0,0,0,4.73-1.49,5.73,5.73,0,0,0,1.57-4.33,5.58,5.58,0,0,0-1.61-4.22,6.57,6.57,0,0,0-4.69-1.53H698.5Z"/><path class="cls-1" d="M750.94,54.5v9h17.72V75.29H750.94v10H771V97.65H735.51V42.14H771V54.5Z"/><path class="cls-1" d="M816.34,45.64a24.7,24.7,0,0,1,10.12,9.8A28.93,28.93,0,0,1,830,69.85a28.44,28.44,0,0,1-3.58,14.33,25.46,25.46,0,0,1-10.16,9.89A31.43,31.43,0,0,1,801,97.65h-22V42.14h22A32.07,32.07,0,0,1,816.34,45.64Zm-5.87,34.69q3.85-3.7,3.86-10.48t-3.86-10.59q-3.86-3.73-10.63-3.74h-5.35V84h5.35Q806.62,84,810.47,80.33Z"/><path class="cls-1" d="M522.83,162.71h17.25v11.81H507.4V119h15.43Z"/><path class="cls-1" d="M561.89,131.37v9h17.72v11.74H561.89v10H582v12.36H546.46V119H582v12.36Z"/><path class="cls-1" d="M641.42,174.52H626l-20.55-31v31H590V119h15.43L626,150.42V119h15.44Z"/><path class="cls-1" d="M655.67,170.46q-6.23-4.61-6.69-13.19h16.45a6.17,6.17,0,0,0,1.74,4.26,6.29,6.29,0,0,0,7.36.27,3.51,3.51,0,0,0,1.38-3,4.16,4.16,0,0,0-2.29-3.78,40.24,40.24,0,0,0-7.4-3,66.82,66.82,0,0,1-8.78-3.51,16.79,16.79,0,0,1-5.82-5,13.71,13.71,0,0,1-2.49-8.54,15.58,15.58,0,0,1,2.68-9.17,16.55,16.55,0,0,1,7.4-5.79,27.67,27.67,0,0,1,10.71-2q9.69,0,15.48,4.53t6.18,12.71H674.8a4.94,4.94,0,0,0-1.53-3.78,5.51,5.51,0,0,0-3.74-1.26,4,4,0,0,0-2.84,1,3.78,3.78,0,0,0-1.1,2.91,3.61,3.61,0,0,0,1.22,2.72,11.5,11.5,0,0,0,3,2q1.81.83,5.36,2.08a65.05,65.05,0,0,1,8.7,3.59,17.7,17.7,0,0,1,5.9,5,12.69,12.69,0,0,1,2.48,8.07,16.27,16.27,0,0,1-2.48,8.89,17.05,17.05,0,0,1-7.16,6.23,25,25,0,0,1-11.06,2.28Q661.89,175.07,655.67,170.46Z"/><path class="cls-1" d="M737.32,131.37v9H755v11.74H737.32v10H757.4v12.36H721.89V119H757.4v12.36Z"/><path class="cls-1" d="M803.07,119v12.28h-22.2v9.76h16.38v11.74H780.87v21.73H765.43V119Z"/><path class="cls-1" d="M847.64,119v12.28H825.43v9.76h16.38v11.74H825.43v21.73H810V119Z"/><path class="cls-1" d="M870,131.37v9h17.72v11.74H870v10h20.08v12.36H854.57V119h35.51v12.36Z"/><path class="cls-1" d="M899.65,132a24.57,24.57,0,0,1,9.72-10,28.78,28.78,0,0,1,14.49-3.59q10.39,0,17.48,5.55a25.21,25.21,0,0,1,9.13,15.08H933.86a10.8,10.8,0,0,0-10.24-6.45,10.53,10.53,0,0,0-8.54,3.82q-3.2,3.81-3.19,10.19t3.19,10.28a10.53,10.53,0,0,0,8.54,3.82,10.83,10.83,0,0,0,10.24-6.46h16.61a25.18,25.18,0,0,1-9.13,15.08q-7.1,5.55-17.48,5.55a28.78,28.78,0,0,1-14.49-3.58,24.57,24.57,0,0,1-9.72-10,33,33,0,0,1,0-29.29Z"/><path class="cls-1" d="M1000,119v12.28H985.2v43.23H969.76V131.29H955.12V119Z"/></svg>